<?xml version="1.0" encoding="utf-8"?>
<!-- Generator: Adobe Illustrator 21.0.0, SVG Export Plug-In . SVG Version: 6.00 Build 0)  -->
<svg version="1.1" id="Layer_1" xmlns="http://www.w3.org/2000/svg" xmlns:xlink="http://www.w3.org/1999/xlink" x="0px" y="0px"
	 viewBox="0 0 37.2 12.7" style="enable-background:new 0 0 37.2 12.7;" xml:space="preserve">
<style type="text/css">
	.st0{fill:#FFFFFF;}
</style>
<g>
	<path d="M0,10.4c0,0,0.1,0,0.1,0c12.3,0,24.7,0,37,0c0,0,0.1,0,0.1,0c0,0.8,0,1.6,0,2.4c-12.4,0-24.8,0-37.2,0
		C0,11.9,0,11.1,0,10.4z M10.6,11.1C10.6,11.1,10.6,11.1,10.6,11.1c0.1,0.4,0.2,0.9,0.3,1.3c0.1,0,0.2,0,0.3,0c0.1,0,0.1,0,0.1-0.1
		c0.1-0.2,0.1-0.5,0.2-0.7c0-0.2,0.1-0.3,0.1-0.5c0,0,0,0,0,0c0,0.4,0,0.9,0,1.3c0.1,0,0.2,0,0.3,0c0-0.6,0-1.2,0-1.8
		c-0.2,0-0.3,0-0.5,0c-0.1,0-0.1,0-0.1,0.1c-0.1,0.3-0.2,0.7-0.3,1c0,0,0,0.1,0,0.1c-0.1-0.4-0.2-0.7-0.3-1.1c0-0.1,0-0.1-0.1-0.1
		c-0.1,0-0.2,0-0.3,0c-0.1,0-0.1,0-0.1,0.1c0,0.5,0,1.1,0,1.6c0,0,0,0.1,0,0.1c0.1,0,0.2,0,0.3,0C10.6,12,10.6,11.5,10.6,11.1z
		 M24.1,11.3c-0.3,0-0.6,0-0.9,0c0-0.1,0-0.3,0-0.4c0.3,0,0.6,0,1,0c0-0.1,0-0.2,0-0.3c-0.4,0-0.9,0-1.3,0c0,0.6,0,1.2,0,1.8
		c0.5,0,0.9,0,1.3,0c0-0.1,0-0.2,0-0.3c-0.3,0-0.7,0-1,0c0-0.2,0-0.3,0-0.5c0.3,0,0.6,0,0.9,0C24.1,11.5,24.1,11.4,24.1,11.3z
		 M13.5,12.4c0.1,0,0.2,0,0.3,0c0.1,0,0.1,0,0.1-0.1c0-0.1,0.1-0.2,0.1-0.3c0,0,0-0.1,0.1-0.1c0.2,0,0.4,0,0.6,0c0,0,0.1,0,0.1,0.1
		c0,0.1,0.1,0.2,0.1,0.3c0,0,0,0.1,0,0.1c0.1,0,0.2,0,0.4,0c0,0,0-0.1,0-0.1c-0.2-0.5-0.4-0.9-0.6-1.4c0-0.1-0.1-0.2-0.1-0.3
		c-0.1,0-0.2,0-0.3,0c-0.1,0-0.1,0-0.1,0.1c-0.1,0.4-0.3,0.7-0.4,1.1C13.7,12,13.6,12.2,13.5,12.4z M19.9,10.6c0,0.6,0,1.2,0,1.8
		c0.1,0,0.2,0,0.4,0c0-0.3,0-0.5,0-0.8c0.1,0,0.2,0,0.2,0.1c0.1,0.2,0.2,0.4,0.3,0.6c0,0,0,0.1,0.1,0.1c0.1,0,0.3,0,0.4,0
		c-0.1-0.2-0.2-0.4-0.3-0.6c-0.1-0.1-0.1-0.2-0.3-0.3c0.1-0.1,0.2-0.2,0.2-0.4c0.1-0.2,0.1-0.3,0.3-0.2c0,0,0,0,0,0
		c0-0.1,0-0.2,0-0.2c-0.3,0-0.5,0-0.6,0.3c0,0.1-0.1,0.2-0.1,0.3c0,0.1-0.1,0.1-0.2,0.1c0-0.3,0-0.5,0-0.7
		C20.2,10.6,20.1,10.6,19.9,10.6z M16.9,10.6c0,0.6,0,1.2,0,1.8c0.1,0,0.2,0,0.4,0c0-0.2,0-0.4,0-0.7c0.1,0,0.2,0,0.3,0
		c0.1,0,0.2,0,0.3,0c0.3-0.1,0.4-0.4,0.4-0.7c0-0.2-0.2-0.4-0.4-0.4C17.5,10.6,17.2,10.6,16.9,10.6z M27.2,10.6
		C27.1,10.6,27.1,10.6,27.2,10.6c-0.5,0-0.9,0-1.4,0c0,0,0,0,0,0c0,0.1,0,0.2,0,0.3c0.2,0,0.4,0,0.5,0c0,0.5,0,1,0,1.5
		c0.1,0,0.2,0,0.4,0c0-0.5,0-1,0-1.5c0.2,0,0.3,0,0.5,0C27.2,10.8,27.2,10.7,27.2,10.6z"/>
	<path d="M0,0.1c0.5,0,1.1,0,1.6,0c0,1.1,0,2.3,0,3.4c0.3,0,0.6-0.1,0.8-0.4c0.2-0.4,0.3-0.7,0.5-1.1c0.2-0.4,0.4-0.8,0.6-1.2
		c0.3-0.4,0.7-0.6,1.1-0.7c0.4,0,0.7-0.1,1.1-0.1c0,0,0,0,0,0c0,0.4,0,0.8,0,1.2c0,0-0.1,0-0.1,0c-0.2,0-0.4,0-0.6,0
		c-0.3,0-0.5,0.2-0.7,0.5C4.3,2.2,4.2,2.6,4,2.9C3.9,3.2,3.8,3.5,3.5,3.7C3.4,3.8,3.3,3.9,3.2,4c0,0,0.1,0,0.1,0
		c0.4,0.2,0.7,0.5,1,0.9c0.3,0.5,0.6,1,0.8,1.6C5.3,7,5.6,7.5,5.8,8c0,0,0,0.1,0,0.1c0,0-0.1,0-0.1,0c-0.6,0-1.1,0-1.7,0
		C4,8.1,4,8.1,4,8C3.7,7.4,3.4,6.8,3.1,6.2C2.9,5.8,2.7,5.4,2.5,5.1C2.3,4.7,2,4.6,1.6,4.6c0,1.2,0,2.3,0,3.5c0,0-0.1,0-0.1,0
		c-0.5,0-0.9,0-1.4,0c0,0-0.1,0-0.1,0C0,5.4,0,2.8,0,0.1z"/>
	<path d="M26.6,0c0.1,0,0.3,0,0.4,0.1c0.7,0.1,1.3,0.5,1.7,1c0.3,0.4,0.5,0.8,0.6,1.2c0,0,0,0,0,0c-0.5,0.1-1.1,0.3-1.6,0.4
		c-0.1-0.2-0.2-0.4-0.3-0.6c-0.3-0.5-0.7-0.7-1.2-0.7c-0.5,0-1,0.1-1.4,0.4c-0.4,0.3-0.5,0.7-0.7,1.1c-0.1,0.5-0.1,1.1-0.1,1.7
		c0,0.4,0.1,0.8,0.2,1.1c0.3,0.8,1.1,1.3,1.9,1.1c0.7-0.1,1.1-0.5,1.4-1.1c0.1-0.2,0.1-0.4,0.2-0.6c0.5,0.2,1,0.3,1.6,0.5
		c-0.1,0.3-0.2,0.5-0.3,0.8c-0.5,1-1.3,1.6-2.4,1.8c-0.7,0.1-1.3,0-1.9-0.2c-1-0.4-1.6-1-2-2c-0.3-0.7-0.3-1.5-0.3-2.2
		c0-0.5,0.1-1,0.3-1.5c0.5-1.3,1.4-2,2.7-2.3c0.1,0,0.2,0,0.2-0.1C26,0,26.3,0,26.6,0z"/>
	<path d="M37.2,5.8c0,0.1-0.1,0.2-0.1,0.4c-0.2,0.6-0.5,1.1-1,1.5c-0.4,0.4-0.9,0.5-1.5,0.6c-0.6,0.1-1.2,0.1-1.8-0.1
		c-1.2-0.4-1.9-1.1-2.3-2.3c-0.2-0.6-0.3-1.3-0.2-1.9c0-0.7,0.1-1.4,0.5-2c0.5-1,1.3-1.6,2.4-1.8C33.3,0,33.4,0,33.5,0
		c0.3,0,0.6,0,0.9,0c0.1,0,0.3,0,0.4,0.1c0.8,0.2,1.5,0.6,2,1.4C37,1.7,37.1,2,37.2,2.3c-0.5,0.1-1.1,0.3-1.6,0.4c0,0,0-0.1,0-0.1
		c-0.1-0.4-0.3-0.7-0.6-0.9c-0.4-0.3-0.8-0.4-1.3-0.3c-0.4,0-0.7,0.2-1,0.4c-0.4,0.4-0.6,0.8-0.7,1.4c-0.1,0.5-0.1,1-0.1,1.5
		C32,5,32,5.4,32.2,5.7c0.5,1.2,1.8,1.4,2.5,0.9c0.4-0.2,0.6-0.5,0.8-0.9c0.1-0.2,0.1-0.4,0.2-0.5c0.1,0,0.1,0,0.2,0.1
		C36.3,5.4,36.8,5.5,37.2,5.8C37.2,5.7,37.2,5.7,37.2,5.8z"/>
	<path d="M13.5,8.1c-0.5,0-1.1,0-1.6,0c0-2.2,0-4.4,0-6.6c-0.8,0-1.6,0-2.4,0c0,0,0,0.1,0,0.1c0,1.4,0,2.8,0,4.2
		c0,0.4,0,0.8-0.1,1.3c-0.1,0.6-0.6,1-1.2,1.1c-0.4,0.1-0.8,0-1.2,0c-0.1,0-0.2,0-0.2,0c0-0.4,0-0.8,0-1.2c0,0,0.1,0,0.1,0
		c0.2,0,0.4,0,0.6,0c0.3-0.1,0.5-0.2,0.5-0.5c0-0.4,0-0.8,0-1.3c0-1.6,0-3.2,0-4.8c0,0,0,0,0-0.1c1.9,0,3.7,0,5.6,0
		C13.5,2.8,13.5,5.5,13.5,8.1z"/>
	<path d="M22.6,8.1c-0.2,0-0.4,0-0.6,0c-0.3,0-0.7,0-1,0c-0.1,0-0.1,0-0.1-0.1c-0.2-0.6-0.4-1.1-0.6-1.7c0-0.1-0.1-0.1-0.1-0.1
		c-1,0-2,0-3,0c-0.1,0-0.1,0-0.1,0.1c-0.2,0.5-0.4,1.1-0.6,1.6c0,0.1-0.1,0.1-0.1,0.1c-0.5,0-1.1,0-1.6,0c0,0,0-0.1,0-0.1
		c1-2.6,2-5.2,3.1-7.8c0-0.1,0.1-0.1,0.1-0.1c0.5,0,1,0,1.5,0c0.1,0,0.1,0,0.1,0.1C20.4,2.8,21.5,5.4,22.6,8.1
		C22.5,8.1,22.5,8.1,22.6,8.1z M18.5,2C18.5,2,18.5,2,18.5,2c-0.4,1-0.7,2-1.1,2.9c0.7,0,1.5,0,2.2,0C19.2,4,18.9,3,18.5,2z"/>
	<path class="st0" d="M14.2,11.7c0.2,0,0.3,0,0.5,0c-0.1-0.2-0.2-0.4-0.2-0.6C14.3,11.3,14.3,11.5,14.2,11.7z"/>
	<path class="st0" d="M17.3,10.9c0,0.2,0,0.3,0,0.5c0.1,0,0.1,0,0.1,0c0.1,0,0.2,0,0.2,0c0.1,0,0.2-0.1,0.2-0.2
		c0-0.1-0.1-0.2-0.2-0.2C17.5,10.9,17.4,10.9,17.3,10.9z"/>
	<path d="M14.2,11.7c0.1-0.2,0.2-0.4,0.2-0.6c0.1,0.2,0.2,0.4,0.2,0.6C14.5,11.7,14.4,11.7,14.2,11.7z"/>
	<path d="M17.3,10.9c0.1,0,0.3,0,0.4,0c0.1,0,0.2,0.1,0.2,0.2c0,0.1-0.1,0.2-0.2,0.2c-0.1,0-0.2,0-0.2,0c0,0-0.1,0-0.1,0
		C17.3,11.3,17.3,11.1,17.3,10.9z"/>
</g>
</svg>
