<?xml version="1.0" encoding="utf-8"?>
<!-- Generator: Adobe Illustrator 21.0.0, SVG Export Plug-In . SVG Version: 6.00 Build 0)  -->
<svg version="1.1" id="Слой_1" xmlns="http://www.w3.org/2000/svg" xmlns:xlink="http://www.w3.org/1999/xlink" x="0px" y="0px"
	 viewBox="0 0 196.8 60" style="enable-background:new 0 0 196.8 60;" xml:space="preserve">
<g>
	<path d="M0,56.8L1.1,56c0.3,0.6,0.7,1,1.5,1c0.9,0,1.8-0.7,2.1-1.6H2.3l0.2-1.1h2.3c-0.1-1-0.7-1.5-1.5-1.5c-0.6,0-1.1,0.2-1.6,0.7
		l-0.8-0.9c0.6-0.6,1.5-1,2.5-1c1.5,0,2.8,1.2,2.8,2.9c0,2.1-1.7,3.7-3.7,3.7C1.3,58.2,0.4,57.6,0,56.8z"/>
	<path d="M13.6,51.7h1.4l-0.8,3.1l3.5-3.1h1.8l-3.2,2.8l1.5,3.6h-1.6l-1.2-2.6l-1.4,1.2l-0.4,1.5h-1.4L13.6,51.7z"/>
	<path d="M24.2,55.4c0-2.1,1.7-3.8,3.8-3.8c1.4,0,2.1,0.7,2.6,1.4l-1.1,0.8c-0.3-0.5-0.7-0.9-1.6-0.9c-1.1,0-2.2,1.2-2.2,2.5
		c0,1,0.7,1.6,1.5,1.6c0.6,0,1.1-0.3,1.6-0.7l0.8,0.9c-0.7,0.6-1.4,1-2.4,1C25.4,58.2,24.2,57.1,24.2,55.4z"/>
	<path d="M37.2,51.7h5.6l-1.7,6.3h-1.4l1.4-5.1h-2.7l-1.4,5.1h-1.4L37.2,51.7z"/>
	<path d="M48.4,55.4c0-1.9,1.5-3.8,3.7-3.8c1.6,0,2.5,1.1,2.5,2.5c0,0.4-0.1,0.9-0.3,1.4h-4.6c0,0.9,0.6,1.6,1.6,1.6
		c0.6,0,1.1-0.2,1.6-0.6l0.7,0.9c-0.6,0.5-1.4,0.9-2.5,0.9C49.6,58.2,48.4,57.2,48.4,55.4z M53.3,54.4c0-0.1,0.1-0.3,0.1-0.4
		c0-0.7-0.4-1.2-1.3-1.2c-1,0-1.8,0.7-2.1,1.6H53.3z"/>
	<path d="M61.9,51.7h1.5l-0.2,0.8c0.6-0.6,1.2-1,2-1c1.4,0,2.5,1,2.5,2.7c0,2.2-1.7,3.9-3.5,3.9c-1.1,0-1.8-0.6-2.1-1.3L61.2,60
		h-1.5L61.9,51.7z M66.2,54.4c0-1-0.6-1.6-1.5-1.6c-1.2,0-2.3,1.2-2.3,2.5c0,0.9,0.6,1.6,1.6,1.6C65.2,57,66.2,55.8,66.2,54.4z"/>
	<path d="M75.8,52.9h-2.1l0.3-1.2h5.6l-0.3,1.2h-2.1l-1.4,5.1h-1.4L75.8,52.9z"/>
	<path d="M85.8,51.7h1.4L86.6,54h1.2c1.4,0,2.2,0.7,2.2,1.7c0,1.5-1.2,2.3-3,2.3h-3L85.8,51.7z M87,56.9c1,0,1.6-0.4,1.6-1.1
		c0-0.5-0.5-0.7-1-0.7h-1.3l-0.5,1.8H87z M92.1,51.7h1.4l-1.7,6.3h-1.4L92.1,51.7z"/>
	<path d="M110.1,52.9H108l0.3-1.2h5.6l-0.3,1.2h-2.1l-1.4,5.1h-1.4L110.1,52.9z"/>
	<path d="M118.8,55.4c0-1.9,1.5-3.8,3.7-3.8c1.6,0,2.5,1.1,2.5,2.5c0,0.4-0.1,0.9-0.3,1.4h-4.6c0,0.9,0.6,1.6,1.6,1.6
		c0.6,0,1.1-0.2,1.6-0.6l0.7,0.9c-0.6,0.5-1.4,0.9-2.5,0.9C119.9,58.2,118.8,57.2,118.8,55.4z M123.7,54.4c0-0.1,0.1-0.3,0.1-0.4
		c0-0.7-0.4-1.2-1.3-1.2c-1,0-1.8,0.7-2.1,1.6H123.7z"/>
	<path d="M132.9,54.8l-1.5-3h1.6l0.9,2l1.9-2h1.8l-3.1,3.2l1.5,3.2h-1.6l-0.9-2.2l-2,2.2h-1.8L132.9,54.8z"/>
	<path d="M143.9,51.7h1.5l-0.7,2.5h2.8l0.7-2.5h1.4l-1.7,6.3h-1.4l0.7-2.6h-2.8l-0.7,2.6h-1.5L143.9,51.7z"/>
	<path d="M156.5,51.7h1.4l-1.1,4.2l4.2-4.2h1.4l-1.7,6.3h-1.4l1.1-4.3l-4.2,4.3h-1.4L156.5,51.7z"/>
	<path d="M169.2,51.7h1.4l-0.8,3.1l3.5-3.1h1.8l-3.2,2.8l1.5,3.6h-1.6l-1.2-2.6l-1.4,1.2l-0.4,1.5h-1.4L169.2,51.7z"/>
	<path d="M181.2,51.7h1.4l-1.1,4.2l4.2-4.2h1.4l-1.7,6.3h-1.4l1.1-4.3l-4.2,4.3h-1.4L181.2,51.7z"/>
</g>
<g>
	<polygon points="135.3,44.2 152.4,44.1 146.8,29.6 	"/>
</g>
<g>
	<path d="M14.2,22.9h6.1c8.8,0,15.6-4.5,15.6-12.5c0-2.8-0.8-5-2.5-6.6C31.1,1.5,28,0.5,23.4,0.5H13.2L4.6,32.7h7.1L14.2,22.9z
		 M18.5,6.9h4.6c2.1,0,3.4,0.5,4.4,1.4C28.2,9,28.6,10,28.6,11c0,3.6-3.2,5.7-7.8,5.7h-4.8L18.5,6.9z"/>
</g>
<g>
	<path d="M52.4,33.2c5.4,0,9.1-2.1,12.2-4.9L60,23.5c-2.4,1.9-4.4,3.2-7.5,3.2c-4.6,0-7.8-3.1-7.8-7.8c0-6.8,5.5-12.4,11.3-12.4
		c3.9,0,6,1.7,7.9,4.4l5.8-4.1C67.1,2.6,63,0,56.8,0C46,0,37.3,9,37.3,19.2C37.3,27.8,43.7,33.2,52.4,33.2z"/>
</g>
<g>
	<path d="M96.6,22.4c0-4.7-3.3-6.9-7.7-8.7c-4.4-1.8-5.6-2.5-5.6-4.2c0-1.6,1.7-3.3,4.7-3.3c3.1,0,5.4,1.1,7.8,3.4l4.8-4.8
		C97.8,2,94,0.1,88.5,0.1c-6.9,0-12.8,4-12.8,10.6c0,4.7,3.7,7,7.9,8.7c4.3,1.7,5.5,2.7,5.5,4.2c0,2-2.1,3.4-4.9,3.4
		c-3.7,0-6.5-1.5-9-4.2l-5.3,4.5c3,3.9,7.8,5.9,14,5.9C90.6,33.1,96.6,29.2,96.6,22.4z"/>
</g>
<g>
	<polygon points="104.8,32.7 108.2,19.8 121.1,19.8 117.6,32.7 124.7,32.7 133.3,0.5 126.2,0.5 122.8,13.3 110,13.3 113.4,0.5 
		106.3,0.5 97.7,32.7 	"/>
</g>
<g>
	<path d="M146.4,26.6c-4.3-0.6-6.6-3.8-6.6-8c0-5.6,4.4-12,11.2-12c5.3,0,8.2,3.4,8.2,8.2c0,5.6-4.4,12-11.2,12
		c-0.1,0,2.1,6.3,2.1,6.3c9.9-1.5,16.4-10,16.4-18.8c0-8.1-5.8-14.2-14.7-14.2c-11.5,0-19.3,9.4-19.3,19c0,6.4,3.7,11.5,9.5,13.4
		l3.2-4.2L146.4,26.6z"/>
</g>
<g>
	<path d="M194.3,3.8c-2.3-2.3-5.5-3.3-10.1-3.3h-10.2l-8.6,32.1h7.1l2.6-9.7h6.1c8.8,0,15.6-4.5,15.6-12.5
		C196.8,7.6,196,5.5,194.3,3.8z M181.6,16.8h-4.8l2.6-9.8h4.6c2.1,0,3.4,0.5,4.4,1.4c0.7,0.7,1.1,1.6,1.1,2.7
		C189.4,14.6,186.3,16.8,181.6,16.8z"/>
</g>
<g>
	<polygon points="2.6,39.2 1.8,42.6 135.9,40.5 136.8,39.3 	"/>
</g>
<g>
	<polygon points="152.8,40.2 189.3,39.7 189.5,39.3 152.5,39.3 	"/>
</g>
</svg>
