<?xml version="1.0" encoding="utf-8"?>
<!-- Generator: Adobe Illustrator 21.0.0, SVG Export Plug-In . SVG Version: 6.00 Build 0)  -->
<svg version="1.1" id="Слой_1" xmlns="http://www.w3.org/2000/svg" xmlns:xlink="http://www.w3.org/1999/xlink" x="0px" y="0px"
	 viewBox="0 0 98.9 80.8" style="enable-background:new 0 0 98.9 80.8;" xml:space="preserve">
<g>
	<path d="M58.1,63.2c-4.9,0-8.8,3.9-8.8,8.8c0,4.8,3.9,8.7,8.8,8.8c4.8-0.1,8.7-4,8.8-8.8C66.8,67.2,62.9,63.2,58.1,63.2z
		 M58.1,77.6c-2.8,0-4.9-2.5-4.9-5.6c-0.1-3.1,2.1-5.6,4.9-5.6c2.6,0,4.8,2.5,4.9,5.6C63,75.1,60.8,77.5,58.1,77.6z"/>
	<polygon points="82,63.9 67.8,63.9 67.8,66.9 73.2,66.9 73.2,80.4 76.9,80.4 76.9,66.9 82,66.9 	"/>
	<path d="M92.2,63.9h-4.6l-6.9,16.4H85l1.4-3.7h6.7l1.4,3.7h4.4L92.2,63.9z M89.8,73.9h-2.3l2.3-6l2.3,6H89.8z"/>
	<polygon points="0,66.9 5.1,66.9 5.1,80.4 8.8,80.4 8.8,66.9 13.9,66.9 13.9,63.9 0,63.9 	"/>
	<path d="M23.6,63.2c-4.9,0-8.8,3.9-8.8,8.8c0,4.8,3.9,8.7,8.8,8.8c4.8-0.1,8.7-4,8.8-8.8C32.3,67.2,28.4,63.2,23.6,63.2z
		 M23.6,77.6c-2.7,0-4.9-2.5-4.9-5.6c-0.1-3.1,2.1-5.6,4.9-5.6c2.7,0,4.9,2.5,4.9,5.6C28.5,75.1,26.3,77.5,23.6,77.6z"/>
	<polygon points="40.8,70.9 36.8,63.9 32.4,63.9 38.9,74.1 38.9,80.4 40.8,80.4 42.6,80.4 42.6,74.1 49.1,63.9 44.9,63.9 	"/>
	<path d="M48.5,55.5c24.7,0,44.8-12.4,44.8-27.8C93.2,12.4,73.2,0,48.5,0C23.7,0,3.7,12.4,3.7,27.8C3.7,43.1,23.7,55.5,48.5,55.5z
		 M18,13.2c0,0.1,0,0.1,0,0.2C18.1,13.4,18,13.3,18,13.2c0,0.1,0,0.1,0,0.1C18,13.3,18,13.2,18,13.2z M18.1,12.7c0-0.1,0-0.1,0-0.2
		C18.1,12.5,18.1,12.6,18.1,12.7z M78.9,13.3C78.9,13.3,78.9,13.3,78.9,13.3C78.9,13.3,78.8,13.4,78.9,13.3c0,0,0,0,0-0.1
		C78.9,13.2,78.9,13.3,78.9,13.3z M78.7,14.2C78.7,14.2,78.7,14.2,78.7,14.2C78.7,14.2,78.7,14.2,78.7,14.2
		C78.7,14.2,78.7,14.2,78.7,14.2z M37.5,19.7L37.5,19.7C29,18.2,24,15.2,25.1,11.9c1.2-3.5,9.3-6.1,19.1-6.7
		C41.1,7.7,38.6,12.9,37.5,19.7L37.5,19.7z M72.7,15.8c0.2-0.2,0.4-0.4,0.6-0.6C73.2,15.4,73,15.6,72.7,15.8z M55.5,25.2
		c0,0.6,0,1.3,0,1.9C55.5,26.5,55.5,25.9,55.5,25.2z M52.7,5.6C52.6,5.6,52.6,5.5,52.7,5.6C52.6,5.5,52.6,5.6,52.7,5.6z M55.2,21.2
		c-1,0.1-2.1,0.2-3.2,0.2C53.1,21.3,54.1,21.3,55.2,21.2C55.2,21.2,55.2,21.2,55.2,21.2z M55.2,21.2L54,20.3L55.2,21.2
		C55.2,21.2,55.2,21.2,55.2,21.2z M53.9,15.4c0.1,0.2,0.1,0.4,0.2,0.6C54,15.8,53.9,15.6,53.9,15.4z M54.2,16.6
		c0.1,0.2,0.1,0.4,0.2,0.7C54.3,17,54.3,16.8,54.2,16.6z M54.6,17.9c0.1,0.2,0.1,0.5,0.2,0.7C54.7,18.3,54.6,18.1,54.6,17.9z
		 M54.9,19.3c0.1,0.4,0.2,0.9,0.2,1.4C55,20.2,54.9,19.7,54.9,19.3z M51.3,10.8c0,0-0.1-0.1-0.1-0.1C51.2,10.7,51.3,10.8,51.3,10.8z
		 M50.6,10.2c-0.1-0.1-0.1-0.1-0.2-0.1C50.5,10.1,50.6,10.2,50.6,10.2z M50,9.8c-0.1,0-0.2-0.1-0.2-0.1C49.8,9.7,49.9,9.8,50,9.8z
		 M49.3,9.6c-0.1,0-0.1,0-0.2-0.1C49.2,9.5,49.3,9.5,49.3,9.6z M48.5,11.5c2.5,0,4.6,3.4,5.6,8.8l0,0c-1.8,0.1-3.6,0.2-5.6,0.2
		c-1.9,0-3.8-0.1-5.6-0.2l0,0C43.9,14.9,46,11.5,48.5,11.5z M46.3,10.2c0.1,0,0.1-0.1,0.2-0.1C46.4,10.1,46.4,10.2,46.3,10.2z
		 M46.9,9.8c0.1,0,0.1-0.1,0.2-0.1C47.1,9.7,47,9.8,46.9,9.8z M47.6,9.6c0.1,0,0.1,0,0.2-0.1C47.7,9.5,47.7,9.5,47.6,9.6z
		 M51.8,11.3c0.1,0.1,0.1,0.2,0.2,0.3C51.9,11.5,51.8,11.4,51.8,11.3z M52.3,12.1c0.1,0.1,0.2,0.2,0.2,0.4
		C52.4,12.3,52.4,12.2,52.3,12.1z M52.8,13c0.1,0.1,0.1,0.3,0.2,0.4C52.9,13.2,52.9,13.1,52.8,13z M53.4,14.1
		c0.1,0.2,0.2,0.4,0.3,0.7C53.5,14.5,53.4,14.3,53.4,14.1z M48.5,21.5c1.2,0,2.3,0,3.4-0.1C50.7,21.4,49.6,21.5,48.5,21.5
		c-1.2,0-2.3,0-3.4-0.1C46.2,21.4,47.3,21.5,48.5,21.5z M58.5,20.8C58.5,20.8,58.5,20.8,58.5,20.8C58.5,20.8,58.5,20.8,58.5,20.8
		C58.5,20.8,58.5,20.8,58.5,20.8z M53.3,6.3c0,0,0.1,0.1,0.1,0.1C53.4,6.4,53.3,6.3,53.3,6.3z M54,7.3c0,0.1,0.1,0.1,0.1,0.2
		C54.1,7.4,54.1,7.3,54,7.3z M54.7,8.4C54.8,8.4,54.8,8.5,54.7,8.4C54.8,8.5,54.8,8.4,54.7,8.4z M55.3,9.5c0,0.1,0.1,0.2,0.1,0.2
		C55.4,9.7,55.4,9.6,55.3,9.5z M55.9,10.9c0,0.1,0.1,0.2,0.1,0.2C56,11.1,56,11,55.9,10.9z M56.5,12.3c0,0,0,0.1,0.1,0.1
		C56.5,12.4,56.5,12.3,56.5,12.3z M57,13.8c0,0.1,0.1,0.2,0.1,0.3C57,14,57,13.9,57,13.8z M57.5,15.5c0,0.1,0,0.1,0,0.2
		C57.5,15.6,57.5,15.5,57.5,15.5z M57.8,17c0,0.1,0,0.2,0.1,0.3C57.9,17.2,57.9,17.1,57.8,17z M58.2,18.8c0,0.1,0,0.2,0.1,0.3
		C58.2,19,58.2,18.9,58.2,18.8z M58.5,20.8c1.3-0.2,2.5-0.4,3.7-0.7C61,20.4,59.8,20.6,58.5,20.8L58.5,20.8z M59.4,19.7L59.4,19.7
		L59.4,19.7c-1.1-6.8-3.6-12-6.7-14.5c9.8,0.6,17.8,3.2,19.1,6.7C72.9,15.2,67.9,18.2,59.4,19.7z M72.6,15.9
		c-0.2,0.2-0.5,0.4-0.7,0.6C72.1,16.3,72.4,16.1,72.6,15.9z M71.8,16.5c-0.3,0.2-0.6,0.4-0.9,0.6C71.2,16.9,71.5,16.7,71.8,16.5z
		 M70.8,17.2c-0.7,0.4-1.4,0.7-2.2,1.1C69.4,17.9,70.1,17.6,70.8,17.2z M68.4,18.3c-0.8,0.3-1.8,0.7-2.8,1
		C66.6,19,67.6,18.7,68.4,18.3z M65.5,19.3c-1,0.3-2.1,0.6-3.3,0.8C63.4,19.9,64.5,19.6,65.5,19.3z M44.3,5.5
		C44.3,5.5,44.3,5.6,44.3,5.5C44.3,5.6,44.3,5.5,44.3,5.5z M43.6,6.3c0,0-0.1,0.1-0.1,0.1C43.5,6.4,43.6,6.3,43.6,6.3z M45.7,10.7
		C45.7,10.7,45.7,10.8,45.7,10.7C45.7,10.8,45.7,10.7,45.7,10.7z M42.9,15.9c0.1-0.2,0.1-0.4,0.2-0.5C43,15.6,42.9,15.8,42.9,15.9z
		 M43.3,14.7c0-0.1,0.1-0.3,0.1-0.4C43.4,14.4,43.4,14.5,43.3,14.7z M43.9,13.3c0.1-0.1,0.1-0.2,0.2-0.4C44,13.1,44,13.2,43.9,13.3z
		 M44.4,12.4c0.1-0.1,0.1-0.2,0.2-0.3C44.5,12.2,44.5,12.3,44.4,12.4z M44.9,11.6c0.1-0.1,0.1-0.2,0.2-0.3
		C45.1,11.4,45,11.5,44.9,11.6z M41.9,20.5c0-0.2,0.1-0.5,0.1-0.7C41.9,20,41.9,20.2,41.9,20.5z M42.2,18.5c0-0.2,0.1-0.4,0.1-0.6
		C42.3,18.1,42.2,18.3,42.2,18.5z M42.5,17.2c0.1-0.2,0.1-0.4,0.2-0.6C42.6,16.8,42.6,17,42.5,17.2z M41.7,21.2
		c1,0.1,2.1,0.2,3.2,0.2C43.8,21.3,42.8,21.3,41.7,21.2L41.7,21.2z M42.3,26.9L42.3,26.9c2,0.2,4,0.3,6.1,0.3c2.1,0,4.2-0.1,6.1-0.3
		l0.9-1.7c0,0,0,0,0,0l-0.9,1.7h0c0,0.1,0,0.2,0,0.2c0,8.9-2.7,15.7-6.1,15.7c-3.4,0-6.1-6.8-6.1-15.7C42.3,27.1,42.3,27,42.3,26.9z
		 M55.5,29c-0.4,9.2-3.4,15.9-7.1,15.9C52.1,44.9,55.1,38.2,55.5,29z M58.9,24.8C58.9,24.8,58.9,24.8,58.9,24.8L58.9,24.8L58.9,24.8
		z M58.9,24.8C58.9,24.8,58.9,24.8,58.9,24.8c0,0,0.1,0,0.1,0C59,24.8,58.9,24.8,58.9,24.8z M71.9,21c-0.1,0-0.1,0.1-0.2,0.1
		C71.8,21.1,71.8,21.1,71.9,21z M68.8,22.4c-0.1,0-0.1,0-0.2,0.1C68.6,22.4,68.7,22.4,68.8,22.4z M67,23C67,23,66.9,23,67,23
		C66.9,23,67,23,67,23z M65.1,23.5c0,0-0.1,0-0.1,0C65,23.6,65.1,23.5,65.1,23.5z M63.2,24c-0.1,0-0.1,0-0.2,0
		C63.1,24,63.2,24,63.2,24z M61,24.4C61,24.5,61,24.5,61,24.4C61,24.5,61,24.5,61,24.4z M74.5,13.1c0-0.2,0-0.4,0-0.7
		C74.6,12.6,74.6,12.8,74.5,13.1z M74.5,19.5c-0.1,0-0.1,0.1-0.2,0.1C74.4,19.6,74.5,19.6,74.5,19.5z M73.4,15.1
		c0.2-0.2,0.3-0.4,0.4-0.6C73.7,14.8,73.6,15,73.4,15.1z M73.9,14.5c0.1-0.2,0.2-0.4,0.3-0.6C74.2,14.1,74.1,14.3,73.9,14.5z
		 M74.3,13.7c0.1-0.2,0.1-0.4,0.2-0.6C74.5,13.3,74.4,13.5,74.3,13.7z M74.4,11.6c0.1,0.2,0.1,0.4,0.1,0.7
		C74.5,12,74.5,11.8,74.4,11.6z M22.3,12.4c0,0.2,0,0.4,0,0.6C22.3,12.8,22.3,12.6,22.3,12.4z M22.4,12.2c0-0.2,0.1-0.4,0.1-0.7
		C22.4,11.8,22.4,12,22.4,12.2z M22.6,13.7c-0.1-0.2-0.1-0.4-0.2-0.6C22.4,13.3,22.5,13.5,22.6,13.7z M22.6,19.6
		c-0.1,0-0.1-0.1-0.2-0.1C22.4,19.6,22.5,19.6,22.6,19.6z M22.6,13.9c0.1,0.2,0.2,0.4,0.3,0.6C22.8,14.3,22.7,14.1,22.6,13.9z
		 M23,14.6c0.1,0.2,0.3,0.4,0.4,0.6C23.3,14.9,23.2,14.8,23,14.6z M23.6,15.2c0.2,0.2,0.4,0.4,0.6,0.6C24,15.6,23.7,15.4,23.6,15.2z
		 M25,16.5c-0.3-0.2-0.5-0.4-0.7-0.5C24.5,16.1,24.8,16.3,25,16.5z M28.4,18.3c-0.8-0.3-1.6-0.7-2.2-1.1
		C26.8,17.6,27.5,17.9,28.4,18.3z M26,17.1c-0.3-0.2-0.6-0.4-0.9-0.6C25.4,16.7,25.7,16.9,26,17.1z M38.4,20.8
		c-0.7-0.1-1.3-0.2-1.9-0.3C37.1,20.6,37.7,20.7,38.4,20.8z M36.5,20.5c-0.6-0.1-1.2-0.2-1.8-0.3C35.3,20.3,35.9,20.4,36.5,20.5z
		 M34.6,20.1c-1.1-0.2-2.2-0.5-3.2-0.8C32.4,19.6,33.5,19.9,34.6,20.1z M31.3,19.3c-1-0.3-1.9-0.6-2.7-1
		C29.4,18.7,30.3,19,31.3,19.3z M38,20.4l0.4,0.4c0,0,0,0,0,0L38,20.4z M38.4,20.8C38.4,20.8,38.4,20.8,38.4,20.8
		C38.4,20.8,38.4,20.8,38.4,20.8C38.4,20.8,38.4,20.8,38.4,20.8z M42.9,7.3c0,0.1-0.1,0.1-0.1,0.2C42.8,7.4,42.8,7.3,42.9,7.3z
		 M42.2,8.4C42.2,8.4,42.1,8.5,42.2,8.4C42.1,8.5,42.2,8.4,42.2,8.4z M41.6,9.5c0,0.1-0.1,0.2-0.1,0.2C41.5,9.7,41.6,9.6,41.6,9.5z
		 M41,10.9c0,0.1-0.1,0.2-0.1,0.2C40.9,11.1,40.9,11,41,10.9z M40.4,12.3c0,0,0,0.1-0.1,0.1C40.4,12.4,40.4,12.3,40.4,12.3z
		 M39.9,13.8c0,0.1-0.1,0.2-0.1,0.3C39.9,14,39.9,13.9,39.9,13.8z M39.4,15.5c0,0.1,0,0.1,0,0.2C39.4,15.6,39.4,15.5,39.4,15.5z
		 M39.1,17c0,0.1,0,0.2-0.1,0.3C39,17.2,39,17.1,39.1,17z M38.7,18.8c0,0.1,0,0.2-0.1,0.3C38.7,19,38.7,18.9,38.7,18.8z M41.4,25.2
		c0,0.6,0,1.3,0,1.9C41.4,26.5,41.4,25.9,41.4,25.2z M53.1,50.6c4.1-3.6,7-11.9,7-22.6c0-0.6,0-1.2,0-1.8
		c10.4-1.9,17.6-6.2,18.7-11.3c0.3,0.3,0.7,0.6,1,0.9c0.1,0.1,0.2,0.2,0.2,0.2c0.4,0.3,0.7,0.7,1,1c0,0,0,0,0,0
		c0.3,0.4,0.6,0.7,0.9,1.1c0,0.1,0.1,0.1,0.1,0.2c0.3,0.4,0.6,0.8,0.9,1.2c1.8,2.7,2.9,5.6,2.9,8.7C85.8,39.7,71.5,49.2,53.1,50.6z
		 M76.4,18c0,0,0.1-0.1,0.1-0.1C76.5,17.9,76.5,17.9,76.4,18z M77.2,17.1C77.3,17.1,77.3,17,77.2,17.1C77.3,17,77.3,17.1,77.2,17.1z
		 M77.9,16.2c0,0,0.1-0.1,0.1-0.1C78,16.1,77.9,16.1,77.9,16.2z M78.4,15.3c0,0,0-0.1,0.1-0.1C78.4,15.2,78.4,15.3,78.4,15.3z
		 M78.7,11.7c0,0,0-0.1,0-0.1c0,0,0,0,0,0C78.7,11.7,78.7,11.7,78.7,11.7z M78.8,12.7c0-0.1,0-0.2,0-0.2
		C78.8,12.5,78.8,12.6,78.8,12.7z M20.5,18c0,0-0.1-0.1-0.1-0.1C20.4,17.9,20.4,17.9,20.5,18z M19.7,17.1
		C19.6,17.1,19.6,17,19.7,17.1C19.6,17,19.6,17.1,19.7,17.1z M19,16.2c0,0-0.1-0.1-0.1-0.1C19,16.1,19,16.1,19,16.2z M18.5,15.3
		c0,0,0-0.1-0.1-0.1C18.5,15.2,18.5,15.3,18.5,15.3z M14,19.5c0.3-0.4,0.6-0.8,0.9-1.2c0-0.1,0.1-0.1,0.1-0.2c0.3-0.4,0.6-0.7,1-1.1
		c0,0,0,0,0,0c0.3-0.4,0.7-0.7,1-1c0.1-0.1,0.2-0.2,0.2-0.2c0.3-0.3,0.6-0.6,1-0.9c1.1,5,8.3,9.4,18.7,11.3l1.2-1.4l0,0
		c-0.1,0-0.1,0-0.2,0c0.1,0,0.1,0,0.2,0c0,0,0,0,0,0c0,0,0,0,0,0h0l-1.2,1.4c0,0.6,0,1.2,0,1.8c0,10.7,2.8,19,7,22.6
		c-18.4-1.4-32.7-10.9-32.7-22.4C11.1,25.1,12.1,22.1,14,19.5z M25,21c0.1,0,0.1,0.1,0.2,0.1C25.1,21.1,25.1,21.1,25,21z M28.1,22.4
		c0.1,0,0.1,0,0.2,0.1C28.3,22.4,28.2,22.4,28.1,22.4z M29.9,23C29.9,23,30,23,29.9,23C30,23,29.9,23,29.9,23z M31.8,23.5
		c0.1,0,0.1,0,0.2,0C31.9,23.6,31.8,23.5,31.8,23.5z M33.7,24c0.1,0,0.1,0,0.2,0C33.8,24,33.7,24,33.7,24z M35.8,24.4
		C35.9,24.5,35.9,24.5,35.8,24.4C35.9,24.5,35.9,24.5,35.8,24.4z"/>
</g>
</svg>
