<?xml version="1.0" encoding="utf-8"?>
<!-- Generator: Adobe Illustrator 21.0.0, SVG Export Plug-In . SVG Version: 6.00 Build 0)  -->
<svg version="1.1" id="Слой_1" xmlns="http://www.w3.org/2000/svg" xmlns:xlink="http://www.w3.org/1999/xlink" x="0px" y="0px"
	 viewBox="0 0 1233.8 422.4" style="enable-background:new 0 0 1233.8 422.4;" xml:space="preserve">
<g>
	<path d="M1233.8,417.1c-28,0-55.4,0-83.4,0c0-2.4,0-4.6,0-6.7c0-86.8,0-173.6,0-260.4c0-2,0.1-4-0.1-6c-0.7-8.7-6.7-13.8-15.5-13.4
		c-9,0.4-14,5.2-14.1,14.1c-0.1,45.8-0.1,91.6-0.1,137.5c0,43.2-0.1,86.3,0.1,129.5c0,4.6-1.2,6-5.8,5.9c-24-0.2-48-0.1-72-0.1
		c-1.6,0-3.3-0.1-5.4-0.2c-0.1-2-0.3-3.8-0.3-5.6c0-108.3,0-216.6-0.1-324.9c0-4.8,1.2-6.2,6.1-6.2c23.3,0.2,46.6,0.1,70,0.1
		c8.8,0,7.4,0,7.4,7.1c0,1,0.2,1.9,0.2,2.1c8.9-3.2,17.5-7.3,26.5-9.3c22.5-4.8,44.6-3.9,65.2,8.3c14.2,8.4,21.1,20.7,21.1,37.1
		c0,95.3,0,190.6,0,285.9C1233.8,413.4,1233.8,414.9,1233.8,417.1z"/>
	<path d="M903.2,213c-26.6,0-52.7,0-79.4,0c-0.1-1.6-0.4-3.2-0.4-4.8c0-21.7-0.2-43.3,0.1-65c0.3-24.8,11.7-42.8,34.2-53.6
		c13.4-6.4,27.7-9.2,42.3-10.6c20.6-2,41.2-1.7,61.6,2.8c10.5,2.3,20.4,6,29.3,12.1c15,10.2,22.9,24.7,25,42.5
		c0.7,6.4,1,12.9,1,19.4c0.1,84.8,0,169.6,0,254.4c0,2.1,0,4.3,0,6.8c-24.6,0-48.6,0-73.2,0c-0.2-3.6-0.4-7.2-0.6-11.7
		c-2.6,2.5-4.5,4.5-6.6,6.2c-7.3,5.8-16,8-25,9.2c-18.4,2.5-36.8,2.7-54.9-2.4c-24.1-6.7-36-22.3-36.2-47.3c-0.2-22,0.4-44-0.2-66
		c-0.5-20.6,7.5-37.1,23.8-48.5c16.4-11.5,34.1-21.3,51.4-31.6c9.3-5.5,18.9-10.5,28.2-15.9c7.1-4.2,10.5-10.2,10-19
		c-0.7-15-0.1-30-0.3-45c-0.1-11.3-8.9-18.4-18.4-14.5c-3.6,1.5-7.3,5.2-8.7,8.8c-2.4,6.6-4.2,13.8-4.3,20.8
		c-0.3,15.6,0.7,31.3,1.1,46.9C903.2,208.8,903.2,210.6,903.2,213z M933.2,267.5c-8.4,1.8-16.1,4-21.6,9.7
		c-3.4,3.5-7.2,8.5-7.4,12.9c-0.7,22.8-0.5,45.6-0.2,68.4c0.1,5.6,3.3,9.6,8.9,11.4c12,3.9,20.6-2.2,20.6-15c0.1-27.5,0-54.9,0-82.4
		C933.5,271.1,933.3,269.6,933.2,267.5z"/>
	<path d="M500.4,249.9c0-35.1-0.4-70.3,0.1-105.4c0.4-26.3,13.1-45,37.3-55.8c12.5-5.6,25.6-8.2,39.1-9.5c22-2.2,44-2,65.2,4.9
		c10.5,3.5,20.9,8,30.3,13.7c16.5,10,24.3,25.9,24.4,44.9c0.3,71.8,0.4,143.6,0,215.4c-0.1,24.4-11.8,42.4-34.2,53.1
		c-12.2,5.8-25.2,8.6-38.4,9.9c-22.1,2.2-44.2,1.8-66-2.8c-12.1-2.6-23.7-6.8-33.8-14.2c-15.3-11.2-23.3-26.7-23.7-45.2
		C500.1,322.5,500.5,286.2,500.4,249.9C500.5,249.9,500.4,249.9,500.4,249.9z M613.5,250.5c0-9,0-18,0-27c0-26.3,0.1-52.6-0.1-79
		c0-9.4-5.5-14.8-14.4-15.1c-8.8-0.2-14.2,4.6-15.2,13.7c-0.3,2.8-0.5,5.6-0.5,8.5c0,66,0,131.9,0,197.9c0,3,0.2,6,0.6,9
		c1,8,5.7,12.3,14,12.8c7.9,0.5,13.1-3.2,15-10.9c0.6-2.5,0.7-5.3,0.7-7.9C613.6,318.5,613.5,284.5,613.5,250.5z"/>
	<path d="M271.6,90.8c0.8-0.1,1.4,0,1.7-0.3c9.4-6.5,20-9.7,31.1-11.2c14.8-2,29.7-2.8,43.9,2.8c7.9,3.1,15.6,7.5,22.3,12.7
		c8.8,6.8,13.4,16.5,13.4,27.8c0.1,30.8,0.1,61.6,0.2,92.5c0,3.7-1.7,4.3-4.9,4.3c-24.5-0.1-49-0.1-73.5,0c-3.9,0-4.7-1.5-4.7-5
		c0.1-21.3,0.1-42.7,0-64c0-2.2,0-4.3-0.3-6.5c-1.6-10.5-7.8-14.7-18.4-12.9c-5.9,1-9.7,4.2-10.7,10.2c-0.5,2.8-0.8,5.6-0.8,8.4
		c0,87,0,173.9,0,260.9c0,6.8,0,6.8-6.7,6.8c-23.5,0-47-0.1-70.5,0.1c-4.6,0-6.3-1-6.3-6c0.1-108.3,0.1-216.6,0-324.9
		c0-4.9,1.5-6.1,6.2-6.1c23.2,0.2,46.3,0.1,69.5,0.1c7.4,0,7.4,0,7.8,7.3C271.1,88.9,271.4,89.8,271.6,90.8z"/>
	<path d="M168.1,417.3c-20.7,0-41.4,0.3-62-0.1c-10.4-0.2-20.9-1.3-31.2-3C53,410.5,44,402,40.8,379.9c-2.2-15.4-3.2-31.1-3.3-46.7
		c-0.4-65.3-0.1-130.6-0.2-196c0-7.8,0-7.8-8-7.8c-9.6,0-19.3,0-29.3,0c0-16.3,0-32.2,0-48.8c8.8,0,17.4,0.1,26,0
		c13-0.1,11.3,1.6,11.3-11.5c0.1-17,0.1-34-0.1-51c0-4.2,1-5.9,5.5-5.9c24,0.2,48,0.2,72,0c4.6,0,5.6,1.7,5.5,5.9
		c-0.2,18.7,0.1,37.3-0.2,56c-0.1,5,1.3,6.7,6.5,6.6c12.8-0.3,25.6-0.1,38.9-0.1c0,16.3,0,32.2,0,48.8c-5.7,0-11.3,0-16.9,0
		c-7.5,0-15,0.3-22.5-0.1c-4.7-0.2-6,1.6-5.9,6.1c0.1,38.8,0.1,77.7,0.1,116.5c0,26.2,0,52.3,0,78.5c0,4,0.2,8,0.8,12
		c1.4,10.4,8.7,16.2,22.2,17.4c7.1,0.6,14.3,0.8,21.4,1.2c2.3,0.1,4.3,0.1,4.3,3.4c-0.1,17.2-0.1,34.3-0.2,51.5
		C168.8,416.1,168.5,416.4,168.1,417.3z"/>
	<path d="M715.9,1.1c27.6,0,54.9,0,82.6,0c0,138.6,0,277,0,415.9c-27.5,0-54.9,0-82.6,0C715.9,278.5,715.9,140.1,715.9,1.1z"/>
	<path d="M483,83.2c0,2.6,0,4.5,0,6.5c0,107,0,214,0,320.9c0,6.8,0,6.8-6.7,6.8c-23.5,0-47-0.1-70.5,0.1c-4.7,0-5.9-1.5-5.9-6
		c0.1-107.6,0.1-215.3,0-322.9c0-4.1,0.8-5.9,5.5-5.8c24.2,0.2,48.3,0.1,72.5,0.1C479.4,82.9,480.8,83,483,83.2z"/>
	<path d="M441.7,62.1c-12.3,0-24.7-0.1-37,0.1c-3.9,0.1-5.2-1.3-5.2-5.2c0.2-17.3,0.1-34.7,0-52c0-3.6,1.1-5,4.8-5
		c24.8,0.1,49.7,0.1,74.5,0c3.7,0,4.9,1.2,4.9,4.9c-0.1,17.3-0.2,34.7,0,52c0.1,4.4-1.7,5.3-5.6,5.2C466.1,62,453.9,62.1,441.7,62.1
		z"/>
</g>
</svg>
