<?xml version="1.0" encoding="utf-8"?>
<!-- Generator: Adobe Illustrator 21.0.0, SVG Export Plug-In . SVG Version: 6.00 Build 0)  -->
<svg version="1.1" id="Слой_1" xmlns="http://www.w3.org/2000/svg" xmlns:xlink="http://www.w3.org/1999/xlink" x="0px" y="0px"
	 viewBox="0 0 216.5 56.1" style="enable-background:new 0 0 216.5 56.1;" xml:space="preserve">
<style type="text/css">
	.st0{fill:#0D0E0F;}
</style>
<g>
	<g>
		<path class="st0" d="M29.9,10.9L18.8,45.3c3.1,2.2,6.9,3.6,11.1,3.6s7.9-1.3,11.1-3.6L29.9,10.9z"/>
		<path class="st0" d="M29.9,0C13.4,0,0,13.4,0,29.9C0,41.2,6.2,51,15.4,56.1l3.5-10.7c-4.8-3.4-7.9-9.1-7.9-15.4
			c0-10.5,8.5-19,19-19c10.5,0,19,8.5,19,19c0,6.4-3.1,12-7.9,15.4l3.5,10.7c9.2-5.1,15.4-14.9,15.4-26.2C59.8,13.4,46.4,0,29.9,0z"
			/>
	</g>
	<path class="st0" d="M76.6,8.7V23c0,1.7,1.4,2.5,2.7,2.5c1.3,0,2.7-0.9,2.7-2.5V8.7h5.4V23c0,4.7-4.1,7.1-8.1,7.1s-8.1-2.4-8.1-7.1
		V8.7H76.6z"/>
	<path class="st0" d="M90.6,8.7H96V17l1.2-2.2l4.7-6.1h6.2l-7.9,9.7l8.1,11.5h-6.2L96.6,22L96,22.6v7.2h-5.3V8.7z"/>
	<path class="st0" d="M126.1,29.8h-6l-4.2-7.4h-0.7v7.4h-5.4V8.7h7.4c3.1,0,5.6,0.9,6.9,3.1c0.7,1.2,1,2.5,1,3.9
		c-0.1,2.5-1.4,4.9-4.1,5.9L126.1,29.8z M117.2,17.9c1.7,0,2.6-1.2,2.5-2.4c0-1.1-0.9-2.2-2.5-2.2H115v4.6H117.2z"/>
	<path class="st0" d="M132.6,13.8l0.9,4.6v11.4h-5.4V8.7h7.1l5.6,11.6l1.9,5l0.2-0.1l-0.8-5.2V8.7h5.3v21.2h-7.6l-5.4-11.5l-1.6-4.6
		L132.6,13.8z"/>
	<path class="st0" d="M162,24.7h-6.7l-1.6,5.2h-5.7l7.2-21.3h7l7.3,21.3h-5.8L162,24.7z M158.5,12.4l-0.5,3l-1.3,4.6h3.9l-1.3-4.6
		l-0.5-3H158.5z"/>
	<path class="st0" d="M182.4,13.2h-7.7v4.2h7.5V22h-7.5v7.9h-5.3V8.5h13V13.2z"/>
	<path class="st0" d="M196.9,8.5v4.6H192v16.7h-5.4V13.1h-4.9V8.5H196.9z"/>
	<path class="st0" d="M209,24.7h-6.7l-1.6,5.2H195l7.2-21.3h7l7.3,21.3h-5.8L209,24.7z M205.6,12.4l-0.5,3l-1.3,4.6h3.9l-1.3-4.6
		l-0.5-3H205.6z"/>
	<g>
		<path class="st0" d="M75.2,45.8l2.6-6.2h1.3L75,49c-0.6,1.3-1.1,1.4-2.8,1.4l0-1h0.6c0.6,0,0.9-0.2,1.2-0.8l0.6-1.4L71,39.6h1.3
			L75.2,45.8z"/>
		<path class="st0" d="M82.2,39.6v5.3l4.8-5.3h1.5l-4.3,4.8l4.5,6h-1.5l-3.9-5.2l-1.2,1.2v4h-1.3V39.6H82.2z"/>
		<path class="st0" d="M91.9,50.4h-1.3V39.6h3.2c2.4,0,3.6,1.8,3.6,3.5c0,1.7-1.2,3.4-3.6,3.4h-2V50.4z M96.2,43
			c0-1.1-0.8-2.3-2.4-2.3h-2v4.6h2C95.5,45.3,96.2,44.1,96.2,43z"/>
		<path class="st0" d="M105.8,45.6h-5v4.8h-1.3V39.6h1.3v4.9h5v-4.9h1.3v10.8h-1.3V45.6z"/>
		<path class="st0" d="M112.7,39.5h1.6l3.9,10.9h-1.3l-1.3-3.5h-4.2l-1.2,3.5h-1.4L112.7,39.5z M115.2,45.8l-1.7-4.9l-1.7,4.9H115.2
			z"/>
		<path class="st0" d="M124,39.6h1.2v1c6.3,0.1,6.2,8.8,0,8.9v1H124v-1c-6.4-0.1-6.4-8.8,0-8.9V39.6z M124,48.4v-6.8
			c-2.3,0-3.5,1.7-3.5,3.4C120.4,46.6,121.7,48.4,124,48.4z M125.2,48.4c4.7-0.1,4.6-6.7,0-6.8V48.4z"/>
		<path class="st0" d="M137.8,39.6v1.2h-2.7v9.6h-1.3v-9.6h-2.7v-1.2H137.8z"/>
		<path class="st0" d="M142,39.5h1.6l3.9,10.9h-1.3l-1.3-3.5h-4.2l-1.2,3.5h-1.4L142,39.5z M144.5,45.8l-1.7-4.9l-1.7,4.9H144.5z"/>
	</g>
	<rect x="69.9" y="33.5" class="st0" width="146.6" height="1.6"/>
	<rect x="128.5" y="11.1" class="st0" width="5" height="8.8"/>
	<rect x="142.1" y="14.7" class="st0" width="4.4" height="12.4"/>
</g>
</svg>
