<?xml version="1.0" encoding="utf-8"?><!DOCTYPE svg PUBLIC "-//W3C//DTD SVG 1.1//EN" "http://www.w3.org/Graphics/SVG/1.1/DTD/svg11.dtd"><svg xmlns="http://www.w3.org/2000/svg" xmlns:xlink="http://www.w3.org/1999/xlink"><symbol viewBox="0 0 82 10" fill="none" id="arrow-long" xmlns="http://www.w3.org/2000/svg"><path d="M77.386 9.85c-.2.2-.514.2-.713 0a.508.508 0 0 1 0-.71l3.614-3.634H.507A.503.503 0 0 1 0 5.004a.51.51 0 0 1 .506-.51h79.781L76.673.868a.517.517 0 0 1 0-.717c.2-.2.513-.2.713 0l4.47 4.495a.508.508 0 0 1 0 .71l-4.47 4.495z" fill="#1E201D"/></symbol><symbol viewBox="0 0 7.34 12" id="arrow-next" xmlns="http://www.w3.org/2000/svg"><defs><style>.bcls-1{fill:#292d39;fill-rule:evenodd}</style></defs><path id="barrow-next.svg" class="bcls-1" d="M1270.04 1199.75l-4.37 4.2 1.09 1.05 6.24-6-6.24-6-1.09 1.05 4.37 4.2v1.5z" transform="translate(-1265.66 -1193)"/></symbol><symbol viewBox="0 0 19 11.97" id="behance" xmlns="http://www.w3.org/2000/svg"><defs><style>.ccls-1{fill-rule:evenodd}</style></defs><path id="cBehance.svg" class="ccls-1" d="M1148.66 6858.68a2.051 2.051 0 0 0 1.8-2.24 3.006 3.006 0 0 0-3.33-3.12H1141v11.73h6.13s3.74.11 3.74-3.46c0 0 .17-2.91-2.21-2.91zm-4.96-3.27h3.43s.83 0 .83 1.22-.49 1.39-1.04 1.39h-3.22v-2.61zm3.26 7.55h-3.26v-3.13h3.43a1.346 1.346 0 0 1 1.24 1.61 1.32 1.32 0 0 1-1.41 1.52zm8.9-6.65c-4.53 0-4.52 4.5-4.52 4.5a4.163 4.163 0 0 0 4.52 4.48s4.04.23 4.04-3.12h-2.08s.07 1.26-1.89 1.26a1.91 1.91 0 0 1-2.07-2.04h6.11s.66-5.08-4.11-5.08zm-2.02 3.52a2.1 2.1 0 0 1 2.07-1.81 1.753 1.753 0 0 1 1.8 1.81h-3.87zm4.35-5.82h-4.86v1.45h4.86v-1.45z" transform="translate(-1141 -6853.31)"/></symbol><symbol viewBox="0 0 59 70.492" id="clienst2" xmlns="http://www.w3.org/2000/svg"><path d="M57.5 59.343c-.3-.41-1.78-1.641-.46-1.738l-.28-1-1.593-1.963-9.997-2.617-9.59 11.45-.82-1.36c-.19-.29-.47-.49-.77-.58-.47-.16-1-.07-1.41.28l-1.75-4.323h-1.15l1.26 1.28-.486.64c0 .77-.474.765-1.094 1.125l1.88 7.125h-4.66l.92-5.688c-.54-.38-.5-1.277-.5-1.987l.833-1.517.729-.996-4 5.629c-.67-.58-1.68-.44-2.18.3L14.97 52.202c-.12.18-.28.34-.46.46-.21.16-.45.27-.7.32l-4.14 1.44c-7.087.469-8.31 5.21-8.31 10.14v2.9c.04 1.67 1.37 3.02 2.99 3.03h51.02c1.65-.01 2.99-1.4 2.99-3.11v-2.58c0-2.34.41-3.689-.86-5.459z" fill="#fce12f"/><path d="M29.506 46.917c-11.089 0-15.256-12-15.256-17s-1.083-9.333-1.917-12.25C11.5 14.75 9.833 3.167 19.5 3.25 19.5 3.25 21 1 28 1s11.417 2.333 18.083 2.333c0 0 1.679 10.358-1.155 20.275 0 0 .634 4.059-.741 9.434-1.661 6.495-5.675 13.875-14.681 13.875z" fill="none" stroke="#000" stroke-width="2" stroke-linejoin="round" stroke-miterlimit="10"/><path d="M13.947 25.236s1.99-7.444 3.178-9.632c0 0 13.75-2.813 25.563 3l2.128 4.751M26.12 69.474l-.02.08M27.5 63.034l-.02.08" fill="none" stroke="#000" stroke-width="2" stroke-linejoin="round" stroke-miterlimit="10"/><path d="M32.88 69.474h-6.76l1.36-6.36c.33.23.74.36 1.17.36h1.86c.37 0 .72-.1 1.03-.27l1.34 6.27z" stroke="#000" stroke-width="2" stroke-linejoin="round" stroke-miterlimit="10"/><path d="M29.36 57.474c0-.09-.03-.19-.11-.26l-10.42-9.4a1.49 1.49 0 0 0-2.18.29l-2.04 3.28c-.27.4-.69.67-1.16.77l-7.09 1.98A6.661 6.661 0 0 0 1 60.664v5.58c0 1.32.83 2.56 2 3.03.31.12.64.2.99.2h22.13" fill="none" stroke="#000" stroke-width="2" stroke-linejoin="round" stroke-miterlimit="10"/><path d="M26.58 60.414l-3.41 3.47a.15.15 0 0 1-.22-.02l-6.8-9.39-1.93-2.67M32.58 60.584l3.25 3.3c.06.06.17.05.22-.02l8.73-12.06" fill="none" stroke="#000" stroke-width="2" stroke-linejoin="round" stroke-miterlimit="10"/><path d="M32.88 69.474h22.13c1.65-.02 2.99-1.56 2.99-3.23v-5.58c0-.12 0-.24-.02-.35a6.649 6.649 0 0 0-5.35-6.18l-7.08-1.98c-.13-.03-.26-.07-.38-.13-.14-.06-.27-.13-.39-.22-.15-.12-.28-.26-.39-.42l-.81-1.3-1.23-1.98a1.49 1.49 0 0 0-2.18-.29l-10.42 9.4c-.08.07-.11.17-.11.26M26.58 60.414v-.25M32.58 60.584v-.42M32.9 69.554l-.02-.08M31.54 63.204l-.03-.12M21.41 43.948l-2.708 3.635M37.743 43.948l2.708 3.635M25.83 30.474h-5.66c-.643 0-1.17-.526-1.17-1.17v-2.66c0-.643.526-1.17 1.17-1.17h5.66c.643 0 1.17.526 1.17 1.17v2.66c0 .644-.526 1.17-1.17 1.17zM38.83 30.474h-5.66c-.643 0-1.17-.526-1.17-1.17v-2.66c0-.643.526-1.17 1.17-1.17h5.66c.643 0 1.17.526 1.17 1.17v2.66c0 .644-.526 1.17-1.17 1.17zM27 27.474h5M41 27.474h4M19 27.474h-5" fill="none" stroke="#000" stroke-width="2" stroke-linejoin="round" stroke-miterlimit="10"/><path d="M32.58 60.584v.82c0 .77-.42 1.44-1.04 1.8-.31.17-.66.27-1.03.27h-1.86c-.43 0-.84-.13-1.17-.36-.54-.38-.9-1-.9-1.71v-.99l2.45-2.49.24-.24c.06-.06.09-.13.09-.21h.28c0 .08.03.15.09.21l1.59 1.62 1.26 1.28z" stroke="#000" stroke-width="2" stroke-linejoin="round" stroke-miterlimit="10"/><path fill="none" stroke="#000" stroke-width="2" stroke-linejoin="round" stroke-miterlimit="10" d="M29.36 57.474h-.14M29.86 57.474h-.22"/></symbol><symbol viewBox="0 0 56 73.245" id="clients" xmlns="http://www.w3.org/2000/svg"><defs><path id="ea" d="M0 0h56v73.245H0z"/></defs><clipPath id="eb"><use xlink:href="#ea" overflow="visible"/></clipPath><path d="M44.958 63.255l-1.043 4.565c0 .925-.802 1.675-1.79 1.675l-30.272.237c-.988 0-.978-.375-.978-1.3l-.5-3.563c0-2.441-7.422-9.137-4.982-9.998l9.85-3.461c.43.635 6.88 9.881 12.59 9.881 5.28 0 11.54-9.769 12.75-11.463l9.04 3.182c.97.336 1.404 1.167 2.064 1.859" clip-path="url(#eb)" fill="#fce12f"/><path d="M3.472 55.447l4.832 5.228a10.292 10.292 0 0 1 2.507 4.838L11.555 69" clip-path="url(#eb)" fill="none" stroke="#000" stroke-width="2" stroke-linejoin="round" stroke-miterlimit="10"/><path d="M35.213 42.912l1.169 6.25 12.557 4.722A6.27 6.27 0 0 1 53 59.751v7.702c0 .99-.802 1.792-1.792 1.792H2.792c-.99 0-1.792-.802-1.792-1.792v-7.702a6.27 6.27 0 0 1 4.062-5.867l12.556-4.722 1.169-6.25" clip-path="url(#eb)" fill="none" stroke="#000" stroke-width="2" stroke-linejoin="round" stroke-miterlimit="10"/><path d="M40.12 50.145S33.417 60.75 27.5 60.75 14.88 50.145 14.88 50.145M51.528 55.447l-4.832 5.228a10.292 10.292 0 0 0-2.507 4.838L43.445 69M36.222 48.917s7.464-1.732 11.322-3.527a3.107 3.107 0 0 0 1.802-2.64c.238-4.153.455-15.393-3.124-26-4.5-13.333-13.5-15.75-19-15.75S12.638 3.417 8.138 16.75c-3.579 10.607-3.362 21.847-3.124 26a3.107 3.107 0 0 0 1.802 2.64c3.858 1.795 11.322 3.527 11.322 3.527" clip-path="url(#eb)" fill="none" stroke="#000" stroke-width="2" stroke-linejoin="round" stroke-miterlimit="10"/><path d="M40.555 38.417c-1.25 2-10.708 8.583-13.292 8.583-2.583 0-12.041-6.583-13.291-8.583-.948-1.518-1.417-10.036-1.588-14.061a2.144 2.144 0 0 1 1.973-2.233c4.257-.344 14.333-1.572 22.448-5.79 0 0 1.657 4.044 4.309 5.364.789.394 1.295 1.183 1.246 2.063-.212 3.836-.819 13.079-1.805 14.657zM12 26.245h-1.541c-.806 0-1.459.653-1.459 1.458v6.084c0 .805.653 1.458 1.459 1.458H13M43 26.245h1.541c.806 0 1.459.653 1.459 1.458v6.084c0 .805-.653 1.458-1.459 1.458H42" clip-path="url(#eb)" fill="none" stroke="#000" stroke-width="2" stroke-linejoin="round" stroke-miterlimit="10"/><ellipse cx="28.5" cy="40.245" rx="2.5" ry="2" clip-path="url(#eb)" fill="none" stroke="#000" stroke-width="2" stroke-linejoin="round" stroke-miterlimit="10"/><path d="M30.93 40.735s9.298.375 13.045-5.542" clip-path="url(#eb)" fill="none" stroke="#000" stroke-width="2" stroke-linejoin="round" stroke-miterlimit="10"/></symbol><symbol viewBox="0 0 26 26" id="close" xmlns="http://www.w3.org/2000/svg"><path d="M25.303 24.311l-1.145 1.146-11.335-11.334-11.44 11.44-1.135-1.134 11.44-11.44L.356 1.655 1.5.509l11.334 11.334L24.274.403l1.135 1.135-11.44 11.44L25.303 24.31z" fill-rule="evenodd"/></symbol><symbol viewBox="0 0 6.78 14.94" id="facebook" xmlns="http://www.w3.org/2000/svg"><defs><style>.gcls-1{fill-rule:evenodd}</style></defs><path id="gFacebook.svg" class="gcls-1" d="M1055.79 6856.18h-2.31v-1.56a.619.619 0 0 1 .64-.71h1.64v-2.57h-2.25a2.887 2.887 0 0 0-3.07 3.13v1.71h-1.45v2.64h1.45v7.47h3.04v-7.47h2.05z" transform="translate(-1049 -6851.34)"/></symbol><symbol viewBox="0 0 55.452 58" id="icon1" xmlns="http://www.w3.org/2000/svg"><path fill="#fce12f" d="M33.213 19h-11l-5.5 9.5 5.5 9.5h11l5.5-9.5z"/><path d="M32.761 19.5l4.901 8.5-4.901 8.5h-9.796l-4.9-8.5 4.9-8.5h9.796zm.867-1.5h-11.53l-5.764 10 5.764 10h11.53l5.765-10-5.765-10zM1.981 40l2.979-5.5h5.797l2.979 5.5-2.979 5.5H4.96L1.981 40zm2.085-7L.274 40l3.792 7h7.583l3.792-7-3.792-7H4.066zM41.992 40l2.979-5.5h5.797l2.979 5.5-2.979 5.5h-5.797L41.992 40zm2.085-7l-3.792 7 3.792 7h7.583l3.792-7-3.792-7h-7.583zM41.992 16.999l2.979-5.5h5.797l2.979 5.5-2.979 5.501h-5.797l-2.979-5.501zM44.077 10l-3.792 6.999 3.792 7h7.583l3.792-7L51.66 10h-7.583zM1.706 16.999l2.98-5.5h5.796l2.979 5.5-2.979 5.501H4.686l-2.98-5.501zM3.792 10L0 16.999l3.792 7h7.583l3.792-7L11.375 10H3.792zM21.986 6.999l2.979-5.5h5.796l2.98 5.5-2.98 5.5h-5.796l-2.979-5.5zM24.071 0l-3.792 6.999 3.792 7h7.583l3.792-7L31.654 0h-7.583zM21.986 51l2.979-5.5h5.796l2.98 5.5-2.98 5.5h-5.796L21.986 51zm2.085-7l-3.792 7 3.792 7h7.583l3.792-7-3.792-7h-7.583z"/><path fill="none" stroke="#000" stroke-width="1.5" stroke-miterlimit="10" d="M27.713 13v6M27.713 38v7M19.396 24.076l-6.629-4.208M12.766 37.399l7.012-2.499M35.811 24.076l7.342-4.208M43.153 37.399L36.141 34.9"/></symbol><symbol viewBox="0 0 58.121 43.811" id="icon2" xmlns="http://www.w3.org/2000/svg"><path fill="#fce12f" d="M1.06 13.984L13.983 1.061l5.385 5.385L6.446 19.37zM51.676 18.291L39.83 6.445l5.385-5.384L57.06 12.907z"/><defs><path id="ia" d="M0 0h58.121v43.811H0z"/></defs><clipPath id="ib"><use xlink:href="#ia" overflow="visible"/></clipPath><circle cx="15.599" cy="31.753" r="2.693" clip-path="url(#ib)" fill="none" stroke="#000" stroke-width="1.5" stroke-miterlimit="10"/><circle cx="19.907" cy="36.061" r="2.693" clip-path="url(#ib)" fill="none" stroke="#000" stroke-width="1.5" stroke-miterlimit="10"/><circle cx="24.214" cy="40.368" r="2.693" clip-path="url(#ib)" fill="none" stroke="#000" stroke-width="1.5" stroke-miterlimit="10"/><path d="M26.858 40.877l.304.304a1.91 1.91 0 1 0 2.701-2.701l-7.264-7.265M30.138 38.753l.538.538a2.283 2.283 0 1 0 3.231-3.23l-8.077-8.078" clip-path="url(#ib)" fill="none" stroke="#000" stroke-width="1.5" stroke-miterlimit="10"/><path d="M32.291 34.445l3.808 3.808a2.23 2.23 0 1 0 3.077-3.228L29.061 24.753M34.445 30.138l3.992 4.042a1.92 1.92 0 1 0 2.726-2.709L29.06 19.368M31.215 16.138l-5.904 5.903a2.665 2.665 0 1 1-3.77-3.768l6.281-6.281a6.142 6.142 0 0 1 7.506-.924 2.135 2.135 0 0 0 2.429-.164l4.227-3.381M14.209 29.447s-2.883-3.018-3.383-6.822a3.455 3.455 0 0 0-.973-2.003l-2.331-2.331" clip-path="url(#ib)" fill="none" stroke="#000" stroke-width="1.5" stroke-miterlimit="10"/><path d="M40.57 31.08l1.413-1.633.021-.021c.257-.278 2.886-3.184 3.362-6.801.1-.757.433-1.463.974-2.003l2.33-2.331 1.928-2.153M18.292 7.523l3.425 3.425a4.183 4.183 0 0 0 3.419 1.199l2.848-.316" clip-path="url(#ib)" fill="none" stroke="#000" stroke-width="1.5" stroke-miterlimit="10"/><path transform="rotate(-45.001 10.214 10.215)" clip-path="url(#ib)" fill="none" stroke="#000" stroke-width="1.5" stroke-miterlimit="10" d="M1.076 6.407h18.276v7.616H1.076z"/><path transform="rotate(-134.999 48.445 9.676)" clip-path="url(#ib)" fill="none" stroke="#000" stroke-width="1.5" stroke-miterlimit="10" d="M40.069 5.869h16.753v7.615H40.069z"/></symbol><symbol viewBox="0 0 58 58" id="icon3" xmlns="http://www.w3.org/2000/svg"><path fill="#fce12f" d="M8 53V12H1v47h32v-6z"/><path fill="none" stroke="#000" stroke-width="1.5" stroke-miterlimit="10" d="M8 53V12H1v47h32v-6z"/><path d="M12 12h16v2H12zM12 19h24v2H12zM12 26h24v2H12zM12 33h13v2H12z"/><path fill="none" stroke="#000" stroke-width="1.5" stroke-miterlimit="10" d="M40 15h-8V6M40 28.75V13"/><path fill="none" stroke="#000" stroke-width="1.5" stroke-miterlimit="10" d="M40.083 14L33 6H8v47h32V36.875"/><path d="M23.543 39.292l-6.899 6.899-2.732-2.732-1.62 1.615 4.352 4.352 8.514-8.514zM46.271 21.156L30.204 37.222a1.004 1.004 0 0 0-.264.461l-1.379 5.311a1.013 1.013 0 0 0 1.235 1.236l5.311-1.379c.175-.045.334-.137.462-.264l16.065-16.065.001-.001.001-.001 3.234-3.234a1.013 1.013 0 0 0 0-1.433l-3.931-3.932a1.016 1.016 0 0 0-1.433 0l-3.234 3.234-.001.001zm-11.94 19.803l-3.376.876.876-3.375 15.156-15.156 2.499 2.5-15.155 15.155zM50.223 20.07l2.499 2.499-1.802 1.802-2.5-2.499 1.803-1.802zm0 0"/></symbol><symbol viewBox="0 0 58 58" id="icon4" xmlns="http://www.w3.org/2000/svg"><path d="M25.83 13.5l1.625 3-1.625 3h-3.088l-1.625-3 1.625-3h3.088m.894-1.5h-4.875l-2.438 4.5 2.438 4.5h4.875l2.438-4.5-2.438-4.5zM25.83 25.5l1.625 3-1.625 3h-3.088l-1.625-3 1.625-3h3.088m.894-1.5h-4.875l-2.438 4.5 2.438 4.5h4.875l2.438-4.5-2.438-4.5zM40.83 25.5l1.625 3-1.625 3h-3.088l-1.625-3 1.625-3h3.088m.894-1.5h-4.875l-2.438 4.5 2.438 4.5h4.875l2.438-4.5-2.438-4.5zM25.83 37.5l1.625 3-1.625 3h-3.088l-1.625-3 1.625-3h3.088m.894-1.5h-4.875l-2.438 4.5 2.438 4.5h4.875l2.438-4.5-2.438-4.5z"/><path fill="#fce12f" d="M15 51V10H8v47h32v-6z"/><path fill="none" stroke="#000" stroke-width="1.5" stroke-miterlimit="10" d="M15 51V10H8v47h32v-6zM47 13h-8V4"/><path fill="none" stroke="#000" stroke-width="1.5" stroke-miterlimit="10" d="M47.083 12L40 4H15v47h32V11M36.938 24.125l-9.001-5.75M36.938 33l-9.001 5.75M29 29h6"/></symbol><symbol viewBox="0 0 58 58" id="icon5" xmlns="http://www.w3.org/2000/svg"><path fill="#fce12f" d="M41.913 2H56v24.5H41.913zM21.957 16.087h14.087V26.5H21.957z"/><path fill="none" stroke="#000" stroke-width="2" stroke-miterlimit="10" d="M2 26.652h14.087V56H2zM36.043 15.167H21.957V56h14.086zM41.913 2H56v54H41.913zM35.75 26.652H21.957M55.707 26.652H41.913"/></symbol><symbol viewBox="0 0 58 58" id="icon6" xmlns="http://www.w3.org/2000/svg"><path fill="#fce12f" d="M18 51V10h-7v47h32v-6z"/><path fill="none" stroke="#000" stroke-width="1.5" stroke-miterlimit="10" d="M18 51V10h-7v47h32v-6zM50 13h-8V4"/><path fill="none" stroke="#000" stroke-width="1.5" stroke-miterlimit="10" d="M50.083 12L43 4H18v47h32V11"/><path d="M22 9h16v2H22zM22 28h24v2H22zM33 35h13v2H33zM33 42h13v2H33zM22 35h7v9h-7zM22 16h1v9.687h-1zM28 16h1v9.687h-1zM24 21.536h1v4.152h-1zM26 18.768h1v6.92h-1zM30 21.536h1v4.152h-1zM32 18.768h1v6.92h-1z"/><path d="M32 16h1v9.687h-1zM38 16h1v9.687h-1zM34 21.536h1v4.152h-1zM36 18.768h1v6.92h-1zM40 21.536h1v4.152h-1zM42 18.768h1v6.92h-1z"/><path d="M42 16h1v9.687h-1zM44 21.536h1v4.152h-1z"/></symbol><symbol viewBox="0 0 17 15.94" id="instagram" xmlns="http://www.w3.org/2000/svg"><defs><style>.ncls-1{fill-rule:evenodd}</style></defs><path id="nInstagram.svg" class="ncls-1" d="M1084.5 6855.16a4.113 4.113 0 1 0 4.37 4.1 4.253 4.253 0 0 0-4.37-4.1zm0 6.74a2.64 2.64 0 1 1 2.81-2.64 2.726 2.726 0 0 1-2.81 2.64zm4.54-7.77a.932.932 0 1 0 .99.93.955.955 0 0 0-.99-.93zm2.59-1.49a5.089 5.089 0 0 0-3.6-1.31h-7.05c-2.97 0-4.97 1.87-4.97 4.66v6.59a4.521 4.521 0 0 0 1.43 3.44 5.2 5.2 0 0 0 3.58 1.26h6.97a5.2 5.2 0 0 0 3.61-1.26 4.481 4.481 0 0 0 1.4-3.4v-6.63a4.482 4.482 0 0 0-1.37-3.35zm-.2 9.98a3.109 3.109 0 0 1-.92 2.35 3.689 3.689 0 0 1-2.52.85h-6.97a3.645 3.645 0 0 1-2.49-.85 3.146 3.146 0 0 1-.95-2.39v-6.59a3.1 3.1 0 0 1 .91-2.34 3.562 3.562 0 0 1 2.49-.85h7.05a3.526 3.526 0 0 1 2.49.87 3.1 3.1 0 0 1 .91 2.32v6.63z" transform="translate(-1076 -6851.34)"/></symbol><symbol viewBox="0 0 15 14" id="linkedin" xmlns="http://www.w3.org/2000/svg"><defs><style>.ocls-1{fill-rule:evenodd}</style></defs><path id="olinkedin.svg" class="ocls-1" d="M1126 6860.58v5.42h-3.21v-5.05c0-1.27-.47-2.14-1.63-2.14a1.746 1.746 0 0 0-1.65 1.15 1.966 1.966 0 0 0-.11.76v5.28h-3.22s.05-8.56 0-9.45h3.22v1.34a.053.053 0 0 0-.02.03h.02v-.03a3.215 3.215 0 0 1 2.9-1.56c2.11 0 3.7 1.35 3.7 4.25zm-13.18-8.58a1.638 1.638 0 1 0-.04 3.26h.02a1.639 1.639 0 1 0 .02-3.26zm-1.63 14h3.22v-9.45h-3.22v9.45z" transform="translate(-1111 -6852)"/></symbol><symbol id="logo" viewBox="0 0 1357.234 181.3" xmlns="http://www.w3.org/2000/svg"><style>.pst0{fill:#010101}</style><path class="pst0" d="M0 56.13h121.68v121.68H0zM338.058 56.052v121.837h-36.554v-11.451c-8.04 9.257-19.982 14.862-36.304 14.862-31.925 0-58.245-28.022-58.245-64.334 0-36.304 26.321-64.326 58.245-64.326 16.321 0 28.264 5.604 36.304 14.862v-11.45h36.554zm-36.554 60.915c0-18.273-12.185-29.723-28.998-29.723s-28.998 11.451-28.998 29.723c0 18.281 12.185 29.732 28.998 29.732s28.998-11.452 28.998-29.732zM450.041 53.609v41.432c-15.104-2.443-36.546 3.653-36.546 27.78v55.068h-36.554V56.052h36.554v21.684c4.871-16.33 21.2-24.127 36.546-24.127zM636.831 0h36.554v177.889h-36.554V0zM1047.702 103.081v74.809h-36.554v-71.64c0-12.185-5.846-19.982-17.547-19.982-12.185 0-19.007 8.524-19.007 22.901v68.72H938.04v-71.64c0-12.185-5.846-19.982-17.539-19.982-12.185 0-19.007 8.524-19.007 22.901v68.72H864.94V56.052h36.554v11.209c5.604-8.29 16.321-14.62 32.651-14.62 14.378 0 25.095 5.846 31.925 16.079 6.822-9.749 18.031-16.079 35.328-16.079 28.023 0 46.304 19.982 46.304 50.44zM1078.909 116.967c0-36.304 28.756-64.326 64.576-64.326 35.82 0 64.576 28.022 64.576 64.326 0 36.312-28.756 64.334-64.576 64.334-35.82-.001-64.576-28.023-64.576-64.334zm92.598 0c0-17.297-12.177-28.748-28.022-28.748-15.837 0-28.022 11.451-28.022 28.748 0 17.305 12.185 28.756 28.022 28.756 15.845-.001 28.022-11.451 28.022-28.756zM1357.234 103.081v74.809h-36.554v-69.446c0-15.112-9.499-22.176-21.2-22.176-13.402 0-22.66 7.798-22.66 25.095v66.527h-36.554V56.052h36.554v11.451c6.58-9.015 18.765-14.862 34.844-14.862 24.612 0 45.57 17.539 45.57 50.44zM794.859 141.216c-5.036 4.352-12.507 7.433-21.264 7.433-13.402 0-24.611-4.387-29.24-17.063h86.501c.976-4.629 1.468-9.499 1.468-14.62 0-36.796-26.32-64.326-61.898-64.326-38.505 0-64.818 28.022-64.818 64.326 0 36.312 25.829 64.334 67.495 64.334 23.051 0 41.016-8.469 52.96-24.891l-31.204-15.193zm-24.676-56.167c10.967 0 22.195 5.113 26.513 21.26h-53.85c3.756-14.097 13.443-21.26 27.337-21.26zM548.455 144.961c-13.103.443-20.405-1.293-20.405-10.69V91.138h20.405V56.052H528.05V21.933h-36.546v34.118h-19.498v35.086h19.498v43.134c0 32.941 13.047 47.424 56.95 43.995v-33.305z"/></symbol><symbol viewBox="0 0 7 10" id="marker" xmlns="http://www.w3.org/2000/svg"><defs><style>.qcls-1{fill:gray;fill-rule:evenodd}</style></defs><path id="qmarker.svg" class="qcls-1" d="M1095.5 5846a3.6 3.6 0 0 0-3.5 3.68c0 1.99 3.25 6.1 3.39 6.27a.146.146 0 0 0 .22 0c.14-.17 3.39-4.28 3.39-6.27a3.6 3.6 0 0 0-3.5-3.68zm0 5.39a1.712 1.712 0 1 1 1.63-1.71 1.666 1.666 0 0 1-1.63 1.71z" transform="translate(-1092 -5846)"/></symbol><symbol viewBox="0 0 10 52" fill="none" id="new-arrow-down" xmlns="http://www.w3.org/2000/svg"><path d="M.15 47.386c-.2-.2-.2-.514 0-.713a.508.508 0 0 1 .71 0l3.634 3.614V.507c0-.279.223-.507.502-.507a.51.51 0 0 1 .51.506v49.781l3.627-3.614a.517.517 0 0 1 .717 0c.2.2.2.513 0 .713l-4.495 4.47a.508.508 0 0 1-.71 0L.15 47.386z" fill="#1E201D"/></symbol><symbol viewBox="0 0 129 129" id="right-arrow" xmlns="http://www.w3.org/2000/svg"><path d="M40.4 121.3c-.8.8-1.8 1.2-2.9 1.2s-2.1-.4-2.9-1.2c-1.6-1.6-1.6-4.2 0-5.8l51-51-51-51c-1.6-1.6-1.6-4.2 0-5.8 1.6-1.6 4.2-1.6 5.8 0l53.9 53.9c1.6 1.6 1.6 4.2 0 5.8l-53.9 53.9z"/></symbol><symbol viewBox="0 0 92 79.132" id="tarif2" xmlns="http://www.w3.org/2000/svg"><path d="M12.625 39.333h24v2h-24z"/><path fill="#fce12f" d="M12.625 22.333h29.5v12h-29.5z"/><path d="M12.625 44.333h47v2h-47zM12.625 49.333h47v2h-47zM12.625 54.333h38v2h-38zM12.625 59.333h38v2h-38zM12.625 64.333h38v2h-38z"/><path d="M89 79.132H0v-79h92v79h-3m-87-77v75h88v-75H2z"/><path d="M89 79.132H0v-79h92v79h-3m-87-77v75h88v-75H2z"/><path d="M1 10.132h91v2H1zM5.125 5.132h6.641v2H5.125zM15 5.132h7v2h-7z"/></symbol><symbol viewBox="0 0 92 79" id="tariff" xmlns="http://www.w3.org/2000/svg"><path d="M89 79H0V0h92v79c0 1.654-1.346 0-3 0M2 2v75h88V2H2z"/><path d="M1 10h91v2H1zM5.125 5h6.641v2H5.125zM15 5h7v2h-7zM66.625 35.2v10.525a6.17 6.17 0 0 1-5.65 6.175l-22.35 2.037-2.862 4.763c.362.525.612 1.125.75 1.763h20.225a4.999 4.999 0 0 1 9.888 1.037 5 5 0 0 1-5 5c-2.25 0-4.125-1.5-4.763-3.537H36.388C35.75 65 33.875 66.5 31.625 66.5c-2.763 0-5-2.238-5-5 0-2.763 2.237-5 5-5 .8 0 1.55.213 2.213.537l2.625-4.362L24.575 26.5h-4.2V24h5.8l2.85 6.25h12.6v2.5H30.163l8.488 18.675 22.1-2.013a3.69 3.69 0 0 0 3.375-3.688V35.2c0-1.35-1.1-2.45-2.45-2.45h-8.15v-2.5h8.15a4.961 4.961 0 0 1 4.949 4.95zm-2.5 26.3c0-1.375-1.125-2.5-2.5-2.5s-2.5 1.125-2.5 2.5 1.125 2.5 2.5 2.5 2.5-1.125 2.5-2.5zm-30 0c0-1.375-1.125-2.5-2.5-2.5s-2.5 1.125-2.5 2.5 1.125 2.5 2.5 2.5 2.5-1.125 2.5-2.5z"/><path d="M61.625 59c1.375 0 2.5 1.125 2.5 2.5S63 64 61.625 64s-2.5-1.125-2.5-2.5 1.125-2.5 2.5-2.5z" fill="#fff"/><path fill="#fce12f" d="M52.125 38l1.5 2-4.5 4h-1.25l-5.75-4 1.5-2 3 2.25V21.5h2.5v18.75z"/><path d="M31.625 59c1.375 0 2.5 1.125 2.5 2.5S33 64 31.625 64s-2.5-1.125-2.5-2.5 1.125-2.5 2.5-2.5z" fill="#fff"/><path fill="none" d="M0 0h92v79H0z"/></symbol><symbol viewBox="0 0 92 79" id="tariff3" xmlns="http://www.w3.org/2000/svg"><defs><path id="va" d="M0 0h92v79H0z"/></defs><clipPath id="vb"><use xlink:href="#va" overflow="visible"/></clipPath><path d="M89 79H0V0h92v79c0 1.654-1.346 0-3 0M2 2v75h88V2H2z" clip-path="url(#vb)"/><path clip-path="url(#vb)" d="M1 10h91v2H1zM5.125 5h6.641v2H5.125zM15 5h7v2h-7z"/><path d="M33.496 49.456l3.167 1.531-1.808 3.7-1.807.277-.278 1.44-3.698 3.166-1.716 3.241 1.266 1.361-2.074-.544-.727-1.806 2.076-8.392-1.717-1.532-.807-3.25.973-1.59-.882.139-1.266-1.625-1.084-.542-2.524-.9-2.084-3.25-1.256-2.351v-3.156l-2.076-3.525-2.625-1.627-1.623.901-2.976 1.449 1.892-1.531-1.176-.276-.442-1.534 1.348-1.084-1.348-.183.265-.992h.993l-.899-1.349 2.432-1.449 4.425 2.441 1.633-1.532 3.516 2.076 6.765-.727v3.434l-2.709.531-.541 1.453 2.626 2.799.624-.092.45-3.514 1.728-.092.713 1.983.9-.543 1.994 4.424-2.803 1.257-2.165 1.176-1.715 2.35v1.176l-.636.091-.448-1.266-2.433.357-.543 1.535.625.908.901-.725.909.083-.451 1.295 1.084.073.357 1.348.727.25.543-.882 3.608.357 2.442 1.811.355 1.448zm42.759-.809l-.193 1.531-1.292-.477.238-.824-1.422-.111-1.844 1.706-1.949.718.47 2.653-.176.533.717.412 2.893-.715 1.128.651.532-.294.349 1.074 1.477.414 1.065-.653.598-3.194-1.607-1.599-.984-1.825zm-7.177-1.488l1.542.293.707-2.183-.414-.359-2.065 1.303.23.946zm4.735-.588l1.599 1.652.919.067.385-.361 1.293.828-.522-1.121-2.432-1.185-1.242.12zm2.902-13.43h-.413l-.064 2.131-1.067 2.249-1.358.999-.054.891 2.479-1.48.118-1.541.827-.762-.651-.523.358-1.249-.175-.715zm6.388 21.482l.176 1.652-1.828 1.717 1.176.109 1.063-1.596.828-1.121-.533-.054-.882-.707zM43.556 29.717v1.728l1.194-.525.341-.531-1.295-2.488-.762.529.045.663-.725.873-.047.909h.863l.386-1.158zM54.38 50.014l-.056 1.918.771.34.773-2.303-.201-.957-1.287 1.002zm26.594-20.067l.066 1.358-1.545 1.891-.054-2.129 2-2.425-1.238.184-1.599 1.295-1.955-.12-1.478 1.424 1.067.772-1.241 3.433-1.063.175-.652.946.293 1.25-.761.404-.239-1.122-.652-.891-.891.948.708 2.009-1.002 1.835-2.194.12-.468.762 1.001 1.477-1.065.891-1.093-1.128-.037 1.065.954 1.066.413 1.898 1.186.414 1.597.653-2.956-.533-1.247-1.185-1.122-1.599 1.532.774-.706-1.296-.148-1.771-.679.174-.826-1.772-2.314 1.599v1.017l-.824.818-1.058-2.662-1.182-1.422-2.846-.533-.827-.698-.414.23.588 1.424.947-.479 1.247.947-3.663 2.192-1.9-3.727-.404.075 1.937 4.423 1.891-.888-.587 2.073-1.892 1.708.294 2.543-1.065.827-1.946 3.67-1.955.348-1.717-4.138.414-1.891-1.065-3.314-3.608.238-2.011-1.955.35-3.195 1.955-2.368 3.79-.652.239 1.011 1.533.999.587-.826 2.35.606.616-.368.266-.892-1.627-.265-.522-.91-.386-.193-.331 1.15-.724-.92.045-.761-.965-.762-.568-.284.045.762 1.203.814-.625.717-.863-1.146-.623-.726-1.434.726-1.008 1.579-1.535-.24-.092-1.908 1.955.137-.616-1.002-.385-.814 1.487-.488.809-1.093.67-.056-.139-.623.433-.569.331.955 1.873.044.522-1.348.726.249-.249-.91 1.112-.358-.341-.404-1.008.275-.35-.853-.039-.009.027-.057-.148-.366.405-.285.348-.9-.376-.055-.623.762-.524 1.146.578.626-.578 1.532-.864.331-.476-1.524-1.002.571-.478-.287.036-1.485.873-.662.717-1.77 1.825-1.002 4.544.835c5.244-.55 14.752-1.561 14.752-1.561l15.698 2.214.597 1.652-2.138 1.191-1.606.341zm-26.935 5.996l-2.485-1.296-.765 1.339.332.616 1.449-.23 1.048.284.421-.713zm2.635 1.623l-.228-1.487-.487-.715.579-.24v-.716l-1.487.808.524 1.343-.231.906 1.33.101zM35.22 25.927l-1.33-.367-1.641 1.762 2.109 5.516 1.011.249.073-1.791.68-.413.037-.689.708-1.311-.497-.992-1.15-1.964z" clip-path="url(#vb)" fill="#fce12f"/></symbol><symbol viewBox="0 0 20 14" id="upwork-logo" xmlns="http://www.w3.org/2000/svg"><defs><style>.wcls-1{fill-rule:evenodd}</style></defs><path id="wUpwork.svg" class="wcls-1" d="M1173 6854.01c.69 0 1.39 0 2.08-.01.21 0 .18.12.18.24 0 1.84-.01 3.68 0 5.52a2.1 2.1 0 0 0 1.06 1.92 2.147 2.147 0 0 0 3.23-1.74c.02-1.88 0-3.76 0-5.64 0-.29 0-.29.32-.29.58 0 1.15 0 1.73-.01a.253.253 0 0 1 .29.21 18.905 18.905 0 0 0 2 4.3.786.786 0 0 0 .19.27 6.044 6.044 0 0 1 .73-1.59 4.266 4.266 0 0 1 3.55-1.97 4.475 4.475 0 0 1 1.61 8.71 5.222 5.222 0 0 1-3.99-.31 1.593 1.593 0 0 1-.29-.15c-.1-.05-.19-.1-.31-.17-.12.55-.24 1.07-.35 1.6-.21.96-.42 1.92-.62 2.89a.223.223 0 0 1-.27.21c-.62-.01-1.23-.01-1.85 0-.18 0-.24-.04-.2-.23.38-1.73.76-3.45 1.13-5.18l.21-.92a.265.265 0 0 0-.04-.24 18.009 18.009 0 0 1-1.51-2.44c-.01-.01-.03-.02-.07-.05 0 .36.01.7 0 1.03a4.248 4.248 0 0 1-2.29 3.73 4.422 4.422 0 0 1-6.43-2.92.9.9 0 0 0-.09-.4v-6.37zm15.48 7.9a2.248 2.248 0 0 0 1.98-1.15 2.2 2.2 0 0 0-3.77-2.26 5.359 5.359 0 0 0-.26.54c-.24.57-.28 1.19-.46 1.77a.156.156 0 0 0 .08.19 4.051 4.051 0 0 0 2.43.91z" transform="translate(-1173 -6854)"/></symbol></svg>